<svg width="13" height="13" viewBox="0 0 13 13" fill="none" xmlns="http://www.w3.org/2000/svg">
<g clip-path="url(#clip0_34_25250)">
<path d="M11.0957 0H1.9043C0.854355 0 0 0.854355 0 1.9043V11.0957C0 12.1456 0.854355 13 1.9043 13H11.0957C12.1456 13 13 12.1456 13 11.0957V1.9043C13 0.854355 12.1456 0 11.0957 0ZM6.52539 9.90234C4.63528 9.90234 3.09766 8.36472 3.09766 6.47461C3.09766 4.5845 4.63528 3.04688 6.52539 3.04688C8.4155 3.04688 9.95312 4.5845 9.95312 6.47461C9.95312 8.36472 8.4155 9.90234 6.52539 9.90234ZM10.334 3.80859C9.70398 3.80859 9.19141 3.29602 9.19141 2.66602C9.19141 2.03601 9.70398 1.52344 10.334 1.52344C10.964 1.52344 11.4766 2.03601 11.4766 2.66602C11.4766 3.29602 10.964 3.80859 10.334 3.80859Z" fill="#2D2E2E" fill-opacity="0.7"/>
<path d="M10.334 2.28516C10.1238 2.28516 9.95312 2.45585 9.95312 2.66602C9.95312 2.87618 10.1238 3.04688 10.334 3.04688C10.5442 3.04688 10.7148 2.87618 10.7148 2.66602C10.7148 2.45585 10.5442 2.28516 10.334 2.28516Z" fill="#2D2E2E" fill-opacity="0.7"/>
<path d="M6.52539 3.80859C5.05551 3.80859 3.85938 5.00473 3.85938 6.47461C3.85938 7.94449 5.05551 9.14062 6.52539 9.14062C7.99527 9.14062 9.19141 7.94449 9.19141 6.47461C9.19141 5.00473 7.99527 3.80859 6.52539 3.80859Z" fill="#2D2E2E" fill-opacity="0.7"/>
</g>
<defs>
<clipPath id="clip0_34_25250">
<rect width="13" height="13" fill="white"/>
</clipPath>
</defs>
</svg>
